# Blender v2.92.0 OBJ File: 'Road2.blend'
# www.blender.org
mtllib road2.mtl
o RB.001_Plane.022
v -2.666670 0.000000 -1.933333
v 2.666670 0.000000 -1.933333
v -2.666670 0.000000 -2.066667
v 2.666670 0.000000 -2.066667
v -2.666670 0.000000 2.066667
v 2.666670 0.000000 2.066667
v -2.666670 0.000000 1.933333
v 2.666670 0.000000 1.933333
v -1.000000 0.000000 0.066667
v 1.000000 0.000000 0.066667
v -1.000000 0.000000 -0.066667
v 1.000000 0.000000 -0.066667
v -1.000000 0.000000 0.066667
v 1.000000 0.000000 0.066667
v -1.000000 0.000000 -0.066667
v 1.000000 0.000000 -0.066667
v -2.666670 0.000000 -1.933333
v 2.666670 0.000000 -1.933333
v -2.666670 0.000000 -2.066667
v 2.666670 0.000000 -2.066667
v -2.666670 0.000000 2.066667
v 2.666670 0.000000 2.066667
v -2.666670 0.000000 1.933333
v 2.666670 0.000000 1.933333
v -2.666670 0.000000 3.200000
v 2.666670 0.000000 3.200000
v -2.666670 0.000000 -3.200000
v 2.666670 0.000000 -3.200000
v -2.666665 0.000000 3.600000
v -2.666665 0.600000 3.600000
v -2.666665 0.000000 3.200000
v -2.666665 0.600000 3.200000
v 2.666665 0.000000 3.600000
v 2.666665 0.600000 3.600000
v 2.666665 0.000000 3.200000
v 2.666665 0.600000 3.200000
v -2.666665 0.000000 -3.200000
v -2.666665 0.600000 -3.200000
v -2.666665 0.000000 -3.600000
v -2.666665 0.600000 -3.600000
v 2.666665 0.000000 -3.200000
v 2.666665 0.600000 -3.200000
v 2.666665 0.000000 -3.600000
v 2.666665 0.600000 -3.600000
vt 0.000000 0.000000
vt 1.000000 0.000000
vt 1.000000 1.000000
vt 0.000000 1.000000
vt 0.000000 0.000000
vt 1.000000 0.000000
vt 1.000000 1.000000
vt 0.000000 1.000000
vt 0.000000 0.000000
vt 1.000000 0.000000
vt 1.000000 1.000000
vt 0.000000 1.000000
vt 0.375000 0.000000
vt 0.625000 0.000000
vt 0.625000 0.250000
vt 0.375000 0.250000
vt 0.625000 0.500000
vt 0.375000 0.500000
vt 0.625000 0.750000
vt 0.375000 0.750000
vt 0.625000 1.000000
vt 0.375000 1.000000
vt 0.125000 0.500000
vt 0.125000 0.750000
vt 0.875000 0.500000
vt 0.875000 0.750000
vt 0.375000 0.000000
vt 0.625000 0.000000
vt 0.625000 0.250000
vt 0.375000 0.250000
vt 0.625000 0.500000
vt 0.375000 0.500000
vt 0.625000 0.750000
vt 0.375000 0.750000
vt 0.625000 1.000000
vt 0.375000 1.000000
vt 0.125000 0.500000
vt 0.125000 0.750000
vt 0.875000 0.500000
vt 0.875000 0.750000
vt 0.000000 0.177083
vt 0.000000 0.000000
vt 1.000000 0.000000
vt 1.000000 0.177083
vt 1.000000 0.822917
vt 1.000000 1.000000
vt 0.000000 1.000000
vt 0.000000 0.822917
vt 1.000000 0.197917
vt 1.000000 0.802083
vt 0.687500 0.510417
vt 0.687500 0.489583
vt 0.312500 0.489583
vt 0.312500 0.510417
vt 0.000000 0.802083
vt 0.000000 0.197917
vn 0.0000 1.0000 0.0000
vn -1.0000 0.0000 0.0000
vn 0.0000 0.0000 -1.0000
vn 1.0000 0.0000 0.0000
vn 0.0000 0.0000 1.0000
vn 0.0000 -1.0000 0.0000
usemtl (null)
s off
f 1/1/1 2/2/1 4/3/1 3/4/1
f 5/5/1 6/6/1 8/7/1 7/8/1
f 9/9/1 10/10/1 12/11/1 11/12/1
f 29/13/2 30/14/2 32/15/2 31/16/2
f 31/16/3 32/15/3 36/17/3 35/18/3
f 35/18/4 36/17/4 34/19/4 33/20/4
f 33/20/5 34/19/5 30/21/5 29/22/5
f 31/23/6 35/18/6 33/20/6 29/24/6
f 36/17/1 32/25/1 30/26/1 34/19/1
f 37/27/2 38/28/2 40/29/2 39/30/2
f 39/30/3 40/29/3 44/31/3 43/32/3
f 43/32/4 44/31/4 42/33/4 41/34/4
f 41/34/5 42/33/5 38/35/5 37/36/5
f 39/37/6 43/32/6 41/34/6 37/38/6
f 44/31/1 40/39/1 38/40/1 42/33/1
usemtl Asphalt.003
f 21/41/1 25/42/1 26/43/1 22/44/1
f 20/45/1 28/46/1 27/47/1 19/48/1
f 24/49/1 18/50/1 16/51/1 14/52/1
f 13/53/1 15/54/1 16/51/1 18/50/1 17/55/1 23/56/1 24/49/1 14/52/1
