# Blender v2.92.0 OBJ File: ''
# www.blender.org
mtllib road2.mtl
o Road2
v -2.666665 -0.100000 -3.200000
v 2.666665 -0.500000 3.200000
v 2.666665 -0.100000 3.200000
v 2.666665 -0.500000 -3.200000
v -1.000000 -0.500000 0.066666
v -1.000000 -0.500000 -0.066666
v 1.000000 -0.500000 -0.066666
v -2.666665 -0.500000 -1.933334
v -2.666665 -0.100000 1.933334
v -2.666665 -0.100000 2.066666
v -2.666665 -0.100000 -1.933334
v 2.666665 -0.500000 2.066666
v 2.666665 -0.500000 1.933334
v 2.666665 -0.500000 -2.066666
v 2.666665 -0.500000 -1.933334
v 2.666665 -0.100000 2.066666
v 2.666665 -0.100000 1.933334
v 1.599999 -0.100000 -1.933334
v 1.000000 -0.100000 -0.066666
v -1.599999 -0.100000 1.933334
v 1.611110 -0.500000 -1.933334
v -1.611110 -0.500000 1.933334
v -2.666665 -0.100000 3.200000
v -2.666665 0.000000 3.200000
v -2.666665 0.000000 -3.200000
v 2.666665 0.000000 3.200000
v 2.666665 -0.100000 -3.200000
v 2.666665 0.000000 -3.200000
v -1.000000 0.000000 0.066666
v 1.000000 0.000000 0.066666
v -2.666665 -0.100000 -2.066666
v -2.666665 0.000000 1.933334
v -2.666665 0.000000 -1.933334
v 2.666665 -0.100000 -1.933334
v 2.666665 -0.100000 -2.066666
v 2.666665 0.000000 -2.066666
v -1.611111 -0.100000 1.933334
v -1.000000 -0.100000 0.066666
v -1.000000 -0.100000 -0.066666
v 1.611111 -0.100000 -1.933334
v 1.000000 -0.100000 0.066666
v -1.611111 0.000000 -1.933334
v 1.611111 0.000000 1.933334
v -2.666665 -0.500000 -2.066666
v -2.666665 0.000000 -2.066666
v 2.666665 0.000000 -1.933334
v -2.666667 -0.500000 3.600000
v -2.666667 0.600000 3.600000
v -2.666667 -0.500000 3.200000
v -2.666667 0.600000 3.200000
v 2.666667 -0.500000 3.600000
v 2.666667 0.600000 3.600000
v 2.666667 0.600000 3.200000
v -1.000000 0.000000 -0.066666
v 1.000000 -0.500000 0.066666
v 1.000000 0.000000 -0.066666
v -2.666665 -0.500000 2.066666
v -2.666665 0.000000 2.066666
v -2.666665 -0.500000 1.933334
v 2.666665 0.000000 2.066666
v 2.666665 0.000000 1.933334
v -2.666665 -0.500000 -3.200000
v -2.666665 0.600000 -3.200000
v -2.666665 -0.500000 -3.600000
v -2.666665 0.600000 -3.600000
v 2.666665 0.600000 -3.200000
v 2.666665 -0.500000 -3.600000
v 2.666665 0.600000 -3.600000
vt 0.375000 0.250000
vt 0.625000 0.250000
vt 0.625000 0.500000
vt 0.375000 0.500000
vt 0.375000 0.750000
vt 0.625000 0.750000
vt 0.625000 1.000000
vt 0.375000 1.000000
vt 0.375000 0.000000
vt 0.625000 0.000000
vt 0.625000 0.044271
vt 0.375000 0.044271
vt 0.375000 0.200521
vt 0.375000 0.049479
vt 0.625000 0.049479
vt 0.625000 0.200521
vt 0.375000 0.205729
vt 0.625000 0.205729
vt 0.625000 0.544271
vt 0.375000 0.544271
vt 0.375000 0.705729
vt 0.625000 0.705729
vt 0.625000 0.549479
vt 0.625000 0.700521
vt 0.375000 0.700521
vt 0.375000 0.549479
vt 0.296875 0.627604
vt 0.296875 0.622396
vt 0.325521 0.549479
vt 0.174479 0.700521
vt 0.203125 0.627604
vt 0.203125 0.622396
vt 0.125000 0.700521
vt 0.125000 0.549479
vt 0.125000 0.500000
vt 0.125000 0.544271
vt 0.125000 0.750000
vt 0.125000 0.705729
vt 0.875000 0.500000
vt 0.875000 0.544271
vt 0.675000 0.549479
vt 0.703125 0.622396
vt 0.703125 0.627604
vt 0.796875 0.627604
vt 0.825000 0.700521
vt 0.875000 0.549479
vt 0.875000 0.700521
vt 0.796875 0.622396
vt 0.875000 0.705729
vt 0.875000 0.750000
vt 0.375000 0.500000
vt 0.575000 0.500000
vt 0.575000 0.250000
vt 0.375000 0.250000
vt 0.375000 0.750000
vt 0.375000 0.799479
vt 0.375000 1.000000
vt 0.575000 1.000000
vt 0.575000 0.800000
vt 0.575000 0.750000
vt 0.575000 0.000000
vt 0.375000 0.000000
vt 0.375000 0.250000
vt 0.575000 0.250000
vt 0.375000 0.500000
vt 0.575000 0.500000
vt 0.375000 0.750000
vt 0.575000 0.750000
vt 0.375000 1.000000
vt 0.575000 1.000000
vt 0.575000 0.250000
vt 0.375000 0.250000
vt 0.375000 0.299479
vt 0.375000 0.500000
vt 0.575000 0.500000
vt 0.575000 0.300000
vt 0.375000 1.000000
vt 0.575000 1.000000
vt 0.575000 0.750000
vt 0.375000 0.750000
vt 0.375000 0.250000
vt 0.625000 0.250000
vt 0.625000 0.500000
vt 0.375000 0.500000
vt 0.375000 0.750000
vt 0.625000 0.750000
vt 0.625000 1.000000
vt 0.375000 1.000000
vt 0.375000 0.000000
vt 0.625000 0.000000
vt 0.625000 0.044271
vt 0.375000 0.044271
vt 0.625000 0.205729
vt 0.375000 0.205729
vt 0.375000 0.200521
vt 0.375000 0.049479
vt 0.625000 0.049479
vt 0.625000 0.200521
vt 0.625000 0.544271
vt 0.375000 0.544271
vt 0.625000 0.705729
vt 0.375000 0.705729
vt 0.625000 0.549479
vt 0.625000 0.700521
vt 0.375000 0.700521
vt 0.375000 0.549479
vt 0.125000 0.700521
vt 0.125000 0.549479
vt 0.325521 0.549479
vt 0.296875 0.622396
vt 0.203125 0.622396
vt 0.203125 0.627604
vt 0.174479 0.700521
vt 0.296875 0.627604
vt 0.703125 0.627604
vt 0.796875 0.627604
vt 0.796875 0.622396
vt 0.825521 0.549479
vt 0.875000 0.549479
vt 0.875000 0.700521
vt 0.674479 0.700521
vt 0.875000 0.500000
vt 0.875000 0.544271
vt 0.703125 0.622396
vt 0.875000 0.705729
vt 0.875000 0.750000
vt 0.625000 0.250000
vt 0.625000 0.500000
vt 0.575000 0.799479
vt 0.625000 1.000000
vt 0.625000 0.950521
vt 0.625000 0.750000
vt 0.625000 0.250000
vt 0.625000 0.000000
vt 0.625000 0.500000
vt 0.625000 0.750000
vt 0.625000 1.000000
vt 0.625000 0.450521
vt 0.625000 0.250000
vt 0.575000 0.299479
vt 0.625000 0.500000
vt 0.625000 1.000000
vt 0.625000 0.750000
vt 0.375000 0.000000
vt 0.625000 0.000000
vt 0.125000 0.500000
vt 0.125000 0.750000
vt 0.875000 0.500000
vt 0.875000 0.750000
vt 0.125000 0.500000
vt 0.125000 0.750000
vt 0.875000 0.500000
vt 0.875000 0.750000
vt 0.375000 0.000000
vt 0.625000 0.000000
vt 0.125000 0.500000
vt 0.125000 0.750000
vt 0.875000 0.500000
vt 0.875000 0.750000
vt 0.375000 0.000000
vt 0.625000 0.000000
vt 0.625000 0.250000
vt 0.375000 0.250000
vt 0.625000 0.500000
vt 0.375000 0.500000
vt 0.625000 0.750000
vt 0.375000 0.750000
vt 0.625000 1.000000
vt 0.375000 1.000000
vt 0.125000 0.500000
vt 0.125000 0.750000
vt 0.875000 0.500000
vt 0.875000 0.750000
vt 0.375000 0.000000
vt 0.625000 0.000000
vt 0.625000 0.250000
vt 0.375000 0.250000
vt 0.625000 0.500000
vt 0.375000 0.500000
vt 0.625000 0.750000
vt 0.375000 0.750000
vt 0.625000 1.000000
vt 0.375000 1.000000
vt 0.125000 0.500000
vt 0.125000 0.750000
vt 0.875000 0.500000
vt 0.875000 0.750000
vn 0.0000 0.0000 -1.0000
vn 0.0000 0.0000 1.0000
vn -1.0000 0.0000 -0.0000
vn 1.0000 -0.0000 0.0000
vn 0.0000 -1.0000 0.0000
vn 0.0000 1.0000 0.0000
usemtl Dirt
s off
f 62/1/1 1/2/1 27/3/1 4/4/1
f 2/5/2 3/6/2 23/7/2 49/8/2
f 49/9/3 23/10/3 10/11/3 57/12/3
f 8/13/3 59/14/3 9/15/3 11/16/3
f 1/2/3 62/1/3 44/17/3 31/18/3
f 4/4/4 27/3/4 35/19/4 14/20/4
f 3/6/4 2/5/4 12/21/4 16/22/4
f 34/23/4 17/24/4 13/25/4 15/26/4
f 55/27/5 7/28/5 21/29/5 15/26/5 13/25/5 22/30/5 5/31/5
f 6/32/5 5/31/5 22/30/5 59/33/5 8/34/5 21/29/5 7/28/5
f 62/35/5 4/4/5 14/20/5 44/36/5
f 2/5/5 49/37/5 57/38/5 12/21/5
f 35/19/6 27/3/6 1/39/6 31/40/6
f 17/24/6 34/23/6 18/41/6 19/42/6 41/43/6 38/44/6 20/45/6
f 11/46/6 9/47/6 20/45/6 38/44/6 39/48/6 19/42/6 18/41/6
f 10/49/6 23/50/6 3/6/6 16/22/6
f 14/51/2 35/52/2 31/53/2 44/54/2
f 15/55/1 21/56/1 8/57/1 11/58/1 18/59/1 34/60/1
f 38/61/4 5/62/4 6/63/4 39/64/4
f 39/64/2 6/63/2 7/65/2 19/66/2
f 7/65/3 55/67/3 41/68/3 19/66/3
f 55/67/1 5/69/1 38/70/1 41/68/1
f 9/71/2 59/72/2 22/73/2 13/74/2 17/75/2 20/76/2
f 57/77/1 10/78/1 16/79/1 12/80/1
usemtl Asphalt
f 1/81/1 25/82/1 28/83/1 27/84/1
f 3/85/2 26/86/2 24/87/2 23/88/2
f 23/89/3 24/90/3 58/91/3 10/92/3
f 45/93/3 25/82/3 1/81/3 31/94/3
f 11/95/3 9/96/3 32/97/3 33/98/3
f 27/84/4 28/83/4 36/99/4 35/100/4
f 60/101/4 26/86/4 3/85/4 16/102/4
f 46/103/4 61/104/4 17/105/4 34/106/4
f 9/107/5 11/108/5 40/109/5 19/110/5 39/111/5 38/112/5 37/113/5
f 37/113/5 38/112/5 41/114/5 19/110/5 40/109/5 34/106/5 17/105/5
f 30/115/6 29/116/6 54/117/6 42/118/6 33/119/6 32/120/6 43/121/6
f 36/99/6 28/83/6 25/122/6 45/123/6
f 42/118/6 54/117/6 56/124/6 30/115/6 43/121/6 61/104/6 46/103/6
f 58/125/6 24/126/6 26/86/6 60/101/6
f 45/127/2 31/53/2 35/52/2 36/128/2
f 34/60/1 40/129/1 11/58/1 33/130/1 42/131/1 46/132/1
f 39/64/4 54/133/4 29/134/4 38/61/4
f 54/133/2 39/64/2 19/66/2 56/135/2
f 41/68/3 30/136/3 56/135/3 19/66/3
f 38/70/1 29/137/1 30/136/1 41/68/1
f 43/138/2 32/139/2 9/71/2 37/140/2 17/75/2 61/141/2
f 16/79/1 10/78/1 58/142/1 60/143/1
usemtl Stripe
f 8/144/3 33/145/3 45/127/3 44/54/3
f 44/54/1 45/127/1 36/128/1 14/51/1
f 14/51/4 36/128/4 46/132/4 15/55/4
f 15/55/2 46/132/2 33/130/2 8/57/2
f 44/146/5 14/51/5 15/55/5 8/147/5
f 36/128/6 45/148/6 33/149/6 46/132/6
f 5/62/3 29/134/3 54/133/3 6/63/3
f 6/63/1 54/133/1 56/135/1 7/65/1
f 7/65/4 56/135/4 30/136/4 55/67/4
f 55/67/2 30/136/2 29/137/2 5/69/2
f 6/150/5 7/65/5 55/67/5 5/151/5
f 56/135/6 54/152/6 29/153/6 30/136/6
f 57/154/3 58/155/3 32/139/3 59/72/3
f 59/72/1 32/139/1 61/141/1 13/74/1
f 13/74/4 61/141/4 60/143/4 12/80/4
f 12/80/2 60/143/2 58/142/2 57/77/2
f 59/156/5 13/74/5 12/80/5 57/157/5
f 61/141/6 32/158/6 58/159/6 60/143/6
usemtl Walls
f 47/160/3 48/161/3 50/162/3 49/163/3
f 49/163/1 50/162/1 53/164/1 2/165/1
f 2/165/4 53/164/4 52/166/4 51/167/4
f 51/167/2 52/166/2 48/168/2 47/169/2
f 49/170/5 2/165/5 51/167/5 47/171/5
f 53/164/6 50/172/6 48/173/6 52/166/6
f 62/174/3 63/175/3 65/176/3 64/177/3
f 64/177/1 65/176/1 68/178/1 67/179/1
f 67/179/4 68/178/4 66/180/4 4/181/4
f 4/181/2 66/180/2 63/182/2 62/183/2
f 64/184/5 67/179/5 4/181/5 62/185/5
f 68/178/6 65/186/6 63/187/6 66/180/6
