# Blender v2.92.0 OBJ File: 'TrafficLight.blend'
# www.blender.org
mtllib TrafficLight.mtl
o TrafficLight
v -0.254423 4.245501 -0.250646
v -0.254423 4.746794 -0.250646
v 0.246870 4.746794 -0.250646
v 0.246870 4.245501 -0.250646
v 0.246870 4.496147 0.000000
v 0.246870 4.245501 0.250646
v 0.246870 4.746794 0.250646
v -0.254423 4.746794 0.250646
v -0.254423 4.245501 0.250646
v -0.254423 5.662337 0.164780
v -0.254423 5.662337 -0.164780
v -0.200414 5.662337 -0.164780
v -0.200414 5.662337 0.164780
v 0.246869 5.257858 0.250646
v -0.254423 5.257858 0.250646
v 0.246869 5.748205 0.250646
v -0.254423 5.748205 0.250646
v -0.254423 5.257858 -0.250646
v 0.246870 5.257858 -0.250646
v -0.254423 4.343451 -0.152696
v -0.254423 4.343451 0.152696
v -0.200414 4.343451 0.152696
v -0.200414 4.343451 -0.152696
v 0.246869 5.748205 -0.250646
v -0.254423 5.748205 -0.250646
v -0.254423 5.166548 -0.159336
v -0.254423 4.838104 -0.159336
v -0.200414 4.838104 -0.159336
v -0.200414 5.166548 -0.159336
v -0.254423 5.343725 0.164780
v -0.254423 5.343725 -0.164780
v -0.430731 5.166548 -0.159336
v -0.430731 5.257858 -0.250646
v -0.254423 4.838104 0.159336
v -0.430731 5.748205 0.250646
v -0.430731 5.662337 0.164780
v -0.254423 5.166548 0.159336
v -0.254423 4.648844 -0.152696
v -0.254423 4.648844 0.152696
v -0.430731 4.746794 -0.250646
v -0.430731 4.746794 0.250646
v -0.200414 4.838104 0.159336
v -0.200414 4.648844 -0.152696
v -0.200414 4.648844 0.152696
v -0.200414 5.343725 0.164780
v -0.200414 5.166548 0.159336
v -0.200414 5.343725 -0.164780
v 0.246869 5.503031 0.000000
v -0.430731 5.662337 -0.164780
v -0.430731 5.748205 -0.250646
v -0.430731 5.166548 0.159336
v -0.430731 5.257858 0.250646
v -0.430731 4.648844 -0.152696
v -0.430731 4.648844 0.152696
vt 0.375000 0.000000
vt 0.625000 0.000000
vt 0.625000 0.250000
vt 0.375000 0.250000
vt 0.375000 0.500000
vt 0.625000 0.500000
vt 0.625000 0.750000
vt 0.375000 0.750000
vt 0.625000 0.792823
vt 0.625000 0.957177
vt 0.625000 0.957177
vt 0.625000 0.792823
vt 0.125000 0.500000
vt 0.125000 0.750000
vt 0.625000 0.500000
vt 0.625000 0.750000
vt 0.625000 0.500000
vt 0.625000 0.750000
vt 0.625000 0.000000
vt 0.625000 0.250000
vt 0.423849 0.951151
vt 0.423849 0.798849
vt 0.423849 0.798849
vt 0.423849 0.951151
vt 0.875000 0.500000
vt 0.875000 0.750000
vt 0.625000 0.000000
vt 0.625000 0.250000
vt 0.625000 0.954463
vt 0.625000 0.954463
vt 0.625000 0.954463
vt 0.625000 0.954463
vt 0.625000 0.792823
vt 0.625000 0.957177
vt 0.625000 1.000000
vt 0.625000 0.954463
vt 0.625000 1.000000
vt 0.625000 1.000000
vt 0.625000 0.795537
vt 0.625000 1.000000
vt 0.625000 0.750000
vt 0.625000 0.792823
vt 0.625000 0.795537
vt 0.576151 0.951151
vt 0.375000 1.000000
vt 0.576151 0.798849
vt 0.625000 1.000000
vt 0.625000 0.750000
vt 0.625000 0.795537
vt 0.576151 0.951151
vt 0.576151 0.798849
vt 0.625000 0.792823
vt 0.625000 0.795537
vt 0.625000 0.957177
vt 0.420112 0.295112
vt 0.420112 0.454888
vt 0.579888 0.295112
vt 0.579888 0.454888
vt 0.625000 0.454888
vt 0.625000 0.295112
vt 0.625000 0.957177
vt 0.625000 1.000000
vt 0.625000 0.795537
vt 0.625000 0.750000
vt 0.576151 0.951151
vt 0.576151 0.798849
vt 0.875000 0.750000
vn 0.0000 0.0000 -1.0000
vn 0.0000 0.0000 1.0000
vn 0.0000 -1.0000 -0.0000
vn 0.0000 1.0000 -0.0000
vn 1.0000 0.0000 0.0000
vn -1.0000 0.0000 -0.0000
vn 0.0000 -0.7071 -0.7071
vn 0.0000 -0.7071 0.7071
usemtl Gray
s 1
f 1/1/1 2/2/1 3/3/1 4/4/1
f 6/5/2 7/6/2 8/7/2 9/8/2
f 10/9/3 11/10/3 12/11/3 13/12/3
f 4/13/3 6/5/3 9/8/3 1/14/3
f 8/7/2 7/6/2 14/15/2 15/16/2
f 15/16/2 14/15/2 16/17/2 17/18/2
f 3/3/1 2/2/1 18/19/1 19/20/1
f 20/21/4 21/22/4 22/23/4 23/24/4
f 7/6/5 3/3/5 19/20/5 14/15/5
f 16/17/4 24/25/4 25/26/4 17/18/4
f 19/20/1 18/19/1 25/27/1 24/28/1
f 26/29/2 27/30/2 28/31/2 29/32/2
f 30/33/6 31/34/6 18/35/6 15/16/6
f 18/35/7 26/29/7 32/36/7 33/37/7
f 10/9/6 30/33/6 15/16/6 17/18/6
f 31/34/6 11/10/6 25/38/6 18/35/6
f 34/39/6 27/30/6 2/40/6 8/7/6
f 10/9/8 17/18/8 35/41/8 36/42/8
f 37/43/6 34/39/6 8/7/6 15/16/6
f 27/30/6 26/29/6 18/35/6 2/40/6
f 20/21/6 38/44/6 2/40/6 1/45/6
f 39/46/6 21/22/6 9/8/6 8/7/6
f 21/22/6 20/21/6 1/45/6 9/8/6
f 8/7/4 2/40/4 40/47/4 41/48/4
f 27/30/4 34/39/4 42/49/4 28/31/4
f 39/46/3 38/44/3 43/50/3 44/51/3
f 30/33/1 10/9/1 13/12/1 45/52/1
f 37/43/3 26/29/3 29/32/3 46/53/3
f 38/44/2 20/21/2 23/24/2 43/50/2
f 11/10/2 31/34/2 47/54/2 12/11/2
f 34/39/1 37/43/1 46/53/1 42/49/1
f 21/22/1 39/46/1 44/51/1 22/23/1
f 31/34/4 30/33/4 45/52/4 47/54/4
f 5/55/5 4/4/5 3/3/5
f 5/56/5 6/5/5 4/4/5
f 5/57/5 3/3/5 7/6/5
f 5/58/5 7/6/5 6/5/5
f 48/59/5 14/15/5 19/20/5
f 48/60/5 24/28/5 16/17/5
f 48/59/5 16/17/5 14/15/5
f 48/60/5 19/20/5 24/28/5
f 49/61/6 36/42/6 35/41/6 50/62/6
f 32/36/6 51/63/6 52/64/6 33/37/6
f 53/65/6 54/66/6 41/48/6 40/47/6
f 2/40/7 38/44/7 53/65/7 40/47/7
f 15/16/4 18/35/4 33/37/4 52/64/4
f 11/10/3 10/9/3 36/42/3 49/61/3
f 37/43/8 15/16/8 52/64/8 51/63/8
f 39/46/8 8/7/8 41/48/8 54/66/8
f 17/18/4 25/26/4 50/67/4 35/41/4
f 38/44/3 39/46/3 54/66/3 53/65/3
f 26/29/3 37/43/3 51/63/3 32/36/3
f 25/38/7 11/10/7 49/61/7 50/62/7
usemtl Red
f 47/54/6 45/52/6 13/12/6 12/11/6
usemtl Yellow
f 28/31/6 42/49/6 46/53/6 29/32/6
usemtl Green
f 22/23/6 44/51/6 43/50/6 23/24/6
